<?xml version="1.0" standalone="no"?>
<!DOCTYPE svg PUBLIC "-//W3C//DTD SVG 20010904//EN"
 "http://www.w3.org/TR/2001/REC-SVG-20010904/DTD/svg10.dtd">
<svg version="1.0" xmlns="http://www.w3.org/2000/svg"
 width="431.000000pt" height="431.000000pt" viewBox="0 0 431.000000 431.000000"
 preserveAspectRatio="xMidYMid meet">
<metadata>
Created by potrace 1.14, written by Peter Selinger 2001-2017
</metadata>
<g transform="translate(0.000000,431.000000) scale(0.100000,-0.100000)"
fill="#000000" stroke="none">
<path d="M1900 3785 c-39 -40 -50 -58 -50 -83 0 -35 -6 -37 -60 -22 -33 10
-36 8 -87 -42 -43 -43 -53 -59 -53 -86 0 -31 -2 -34 -22 -28 -72 20 -74 20
-127 -32 -43 -42 -51 -56 -51 -87 0 -20 -4 -34 -8 -31 -5 3 -24 8 -43 11 -18
3 -36 8 -38 11 -3 2 -29 -19 -58 -48 -43 -43 -53 -58 -53 -86 0 -37 -2 -37
-75 -17 -15 4 -34 -8 -72 -46 l-53 -52 0 -135 c0 -112 -2 -133 -14 -129 -8 3
-30 9 -50 12 -32 6 -39 3 -85 -41 l-51 -49 0 -137 0 -137 -47 14 -48 15 -53
-53 -52 -52 2 -400 3 -400 95 -25 95 -26 3 -102 c3 -102 3 -102 30 -108 15 -3
41 -10 57 -14 17 -5 49 -14 72 -20 l42 -11 3 -101 3 -101 195 -52 195 -52 3
-101 c1 -56 4 -102 5 -102 1 0 112 -29 247 -65 135 -36 304 -81 375 -100 72
-19 229 -62 350 -94 l220 -60 53 52 c42 41 52 58 52 84 0 18 3 33 8 33 4 0 71
-17 149 -38 l142 -39 50 51 c40 41 51 59 51 84 0 35 6 37 60 22 33 -10 36 -8
87 42 43 43 53 59 53 86 0 32 2 34 28 27 15 -3 37 -9 48 -11 16 -4 35 7 73 45
l51 50 0 400 0 400 -42 11 c-24 6 -69 18 -100 27 l-58 16 0 201 0 201 -100 25
-100 24 0 202 0 202 -47 11 c-27 7 -72 19 -100 27 l-53 15 0 99 0 98 -32 10
c-18 6 -63 18 -100 28 l-68 17 0 101 0 101 -97 25 -98 25 -3 101 -3 102 -47
12 c-26 6 -71 18 -99 26 l-53 15 0 99 0 99 -42 12 c-24 6 -114 31 -200 54
l-157 42 -51 -52z"/>
</g>
</svg>
